<svg width="115" height="44" viewBox="0 0 115 44" fill="none" xmlns="http://www.w3.org/2000/svg">
    <path
        d="M21.9467 43.9467C9.84541 43.9467 0 34.1013 0 22C0 9.89863 9.84541 0.0532227 21.9467 0.0532227C34.0481 0.0532227 43.8935 9.89863 43.8935 22C43.8935 34.1013 34.0481 43.9467 21.9467 43.9467ZM21.9467 2.78222C11.3504 2.78222 2.729 11.4037 2.729 22C2.729 32.5963 11.3504 41.2177 21.9467 41.2177C32.5431 41.2177 41.1645 32.5963 41.1645 22C41.1645 11.4037 32.5431 2.78222 21.9467 2.78222Z"
        fill="url(#paint0_linear_878_737)" />
    <path
        d="M32.3935 26.8391H37.7227L36.6114 25.3588L27.8033 13.6136L26.7553 12.2191L25.6332 10.7237L24.6774 9.44931H24.6281H22.7143L20.6483 9.44287L8.6746 25.3588L7.56005 26.8391L6.21271 28.6306L6.1698 28.6874H12.4817L10.0874 31.8884H12.3251L14.7666 28.6274L14.7741 28.6166L16.1075 26.8359L17.2156 25.3556L22.0535 18.8989L23.1692 20.3782L26.9237 25.3588H19.5348L18.4546 26.8391L17.1534 28.6242L19.7794 28.6306H19.8491L29.3963 28.6531L31.8732 31.9367L36.3389 31.9464L33.7998 28.6628L32.3935 26.8391ZM25.2191 17.5623L24.1175 16.1366L22.9793 14.6616L20.9261 17.4057L14.9736 25.3588L13.9009 26.793H11.5849L12.6662 25.3588L19.6389 16.0969L21.6835 13.3733L23.6712 10.7215L24.6495 12.0303L25.7694 13.5321L26.8304 14.9491L34.614 25.3631H31.2457L25.2191 17.5623Z"
        fill="#202054" />
    <path d="M56.2436 1.99072H59.0604L66.9444 20.2901H63.2235L61.5112 16.1052H53.5815L51.9258 20.2923H48.2812L56.2436 1.99072ZM60.3827 13.3189L57.5659 5.87499L54.6925 13.3124L60.3827 13.3189Z" fill="#202054" />
    <path d="M71.3908 13.6241L67.0992 7.88599H70.8788L73.3602 11.6069L76.0484 7.88599H79.5928L75.3448 13.6241L80.3335 20.2925H76.5604L73.3297 15.8462L70.0619 20.2925H66.402L71.3908 13.6241Z" fill="#202054" />
    <path
        d="M81.1607 3.67269C81.1594 3.42847 81.208 3.18656 81.3035 2.96179C81.3991 2.73702 81.5395 2.53414 81.7162 2.36559C81.9009 2.18178 82.1212 2.03769 82.3636 1.94216C82.606 1.84662 82.8653 1.80167 83.1257 1.81008C83.6544 1.79488 84.1683 1.98544 84.5592 2.34163C84.7425 2.51151 84.8888 2.71743 84.9888 2.94647C85.0888 3.17552 85.1404 3.42276 85.1404 3.67269C85.1404 3.92262 85.0888 4.16986 84.9888 4.39891C84.8888 4.62796 84.7425 4.83388 84.5592 5.00375C84.1675 5.35836 83.6539 5.54801 83.1257 5.53313C82.8653 5.54153 82.606 5.49659 82.3636 5.40105C82.1212 5.30552 81.9009 5.16142 81.7162 4.97761C81.5395 4.80955 81.399 4.60707 81.3034 4.38264C81.2079 4.15822 81.1593 3.9166 81.1607 3.67269ZM81.5964 7.88591H84.6964V20.3033H81.6008L81.5964 7.88591Z"
        fill="#202054" />
    <path
        d="M95.5068 18.5865H95.4306C95.0242 19.2554 94.4303 19.7902 93.7226 20.1245C93.0086 20.448 92.2322 20.6109 91.4483 20.6016C90.8847 20.6026 90.3238 20.5249 89.7818 20.3707C89.2611 20.2256 88.7705 19.9888 88.333 19.6714C87.9122 19.3628 87.5642 18.9657 87.3135 18.508C87.0458 18.0082 86.9122 17.4476 86.9257 16.8807C86.9081 16.2872 87.032 15.698 87.2874 15.1619C87.5191 14.6989 87.8501 14.2927 88.2568 13.9724C88.6818 13.6429 89.1579 13.3853 89.6663 13.2099C90.2078 13.0157 90.7655 12.8699 91.3328 12.7742C91.9098 12.6803 92.4917 12.6199 93.0756 12.5934C93.6566 12.5673 94.2077 12.5542 94.7291 12.5542H95.5047V12.2187C95.5047 11.4432 95.2374 10.8622 94.703 10.4759C94.1026 10.0681 93.3869 9.86417 92.6617 9.89427C92.0327 9.89009 91.409 10.0085 90.8252 10.2428C90.2796 10.4621 89.78 10.7821 89.3526 11.1861L87.7252 9.55878C88.3961 8.86347 89.2249 8.34035 90.1412 8.03383C91.0612 7.72292 92.0261 7.56542 92.9972 7.56763C93.7497 7.55007 94.5002 7.65078 95.2215 7.86608C95.7614 8.03168 96.2685 8.28966 96.7203 8.62856C97.0984 8.91684 97.4111 9.28218 97.6374 9.70038C97.8461 10.0877 98.0028 10.5008 98.1036 10.9291C98.195 11.3241 98.2512 11.7266 98.2713 12.1316C98.2866 12.5194 98.2975 12.8592 98.2975 13.1511V20.2857H95.5068V18.5865ZM95.326 14.7349H94.6725C94.2368 14.7349 93.7597 14.7523 93.226 14.7872C92.7151 14.8178 92.2086 14.8996 91.7141 15.0312C91.2801 15.1419 90.8717 15.3357 90.5115 15.6019C90.351 15.7232 90.2224 15.8819 90.137 16.0641C90.0516 16.2463 90.0119 16.4466 90.0214 16.6476C90.0115 16.9069 90.079 17.1632 90.2153 17.3839C90.3469 17.5849 90.5181 17.7569 90.7185 17.8894C90.9315 18.0287 91.1675 18.129 91.4156 18.1856C91.6697 18.246 91.93 18.2767 92.1912 18.2771C93.2601 18.2771 94.0487 18.023 94.557 17.5147C95.0653 17.0063 95.3195 16.3121 95.3195 15.432L95.326 14.7349Z"
        fill="#202054" />
    <path d="M56.2436 23.2642H59.0604L66.9444 41.5635H63.2235L61.5112 37.3787H53.5815L51.9258 41.5657H48.2812L56.2436 23.2642ZM60.3827 34.5924L57.5659 27.1462L54.6925 34.588L60.3827 34.5924Z" fill="#202054" />
    <path
        d="M69.2975 31.795H66.74V29.159H69.2997V27.401C69.2927 26.6173 69.3532 25.8345 69.4805 25.0613C69.5789 24.4206 69.8121 23.808 70.1646 23.264C70.5145 22.7535 71.0037 22.3542 71.574 22.1138C72.3228 21.8215 73.1236 21.6858 73.9268 21.7151C74.5848 21.7101 75.2415 21.7707 75.8875 21.8959L75.6827 24.5319C75.4648 24.4796 75.247 24.436 75.0291 24.4034C74.8132 24.3676 74.5945 24.3501 74.3756 24.3511C74.0196 24.3346 73.6651 24.4056 73.343 24.558C73.0943 24.6855 72.8845 24.8773 72.7352 25.1135C72.5823 25.3613 72.485 25.6393 72.4498 25.9283C72.406 26.2532 72.3848 26.5808 72.3866 26.9086V29.159H75.2557V31.795H72.4041V41.5656H69.2975V31.795Z"
        fill="#202054" />
    <path
        d="M76.7599 29.1591H79.8621V31.1198H79.9122C80.2285 30.4268 80.7414 29.842 81.3871 29.438C82.0476 29.035 82.8094 28.8287 83.583 28.8432C83.7694 28.843 83.9554 28.8605 84.1385 28.8955C84.3193 28.9304 84.5045 28.9739 84.694 29.0241V32.0369C84.437 31.9672 84.1821 31.9127 83.9316 31.8692C83.6885 31.8261 83.4421 31.8042 83.1952 31.8038C82.5886 31.7759 81.9859 31.9145 81.4524 32.2047C81.0547 32.4343 80.7114 32.7471 80.446 33.1218C80.2275 33.4347 80.0694 33.7857 79.9798 34.1566C79.9148 34.4105 79.8761 34.6703 79.8643 34.9321V41.5744H76.7599V29.1591Z"
        fill="#202054" />
    <path
        d="M85.9104 24.9459C85.9086 24.7016 85.9569 24.4595 86.0525 24.2347C86.148 24.0098 86.2888 23.807 86.4659 23.6388C86.6501 23.4543 86.8703 23.3096 87.1128 23.2136C87.3552 23.1177 87.6148 23.0726 87.8754 23.0811C88.4038 23.067 88.9173 23.2574 89.3088 23.6126C89.4922 23.7825 89.6384 23.9884 89.7385 24.2175C89.8385 24.4465 89.8901 24.6938 89.8901 24.9437C89.8901 25.1936 89.8385 25.4409 89.7385 25.6699C89.6384 25.899 89.4922 26.1049 89.3088 26.2748C88.9171 26.6294 88.4036 26.819 87.8754 26.8041C87.615 26.8125 87.3556 26.7676 87.1132 26.6721C86.8708 26.5765 86.6506 26.4324 86.4659 26.2486C86.2894 26.0808 86.1491 25.8787 86.0535 25.6547C85.958 25.4306 85.9093 25.1894 85.9104 24.9459ZM86.3461 29.1591H89.4483V41.5765H86.357L86.3461 29.1591Z"
        fill="#202054" />
    <path
        d="M100.989 32.8799C100.655 32.5247 100.271 32.2201 99.8495 31.9758C99.4815 31.7594 99.063 31.6437 98.6361 31.6403C98.1351 31.6294 97.6375 31.7252 97.1763 31.9213C96.715 32.1173 96.3008 32.4092 95.9609 32.7775C95.642 33.1214 95.3953 33.5259 95.2355 33.9669C94.9101 34.8687 94.9101 35.8558 95.2355 36.7576C95.3953 37.1986 95.642 37.6031 95.9609 37.9471C96.3008 38.3154 96.715 38.6072 97.1763 38.8033C97.6375 38.9993 98.1351 39.0951 98.6361 39.0842C99.1008 39.0884 99.5604 38.9871 99.9803 38.788C100.397 38.5858 100.76 38.2871 101.039 37.9166L103.109 40.1408C102.79 40.4565 102.428 40.7256 102.035 40.9403C101.643 41.1582 101.232 41.3405 100.808 41.4849C100.42 41.6154 100.022 41.7145 99.6186 41.7812C99.294 41.8373 98.9655 41.8679 98.6361 41.8727C97.7365 41.8776 96.8435 41.7196 96.0001 41.4065C95.2038 41.1201 94.4749 40.6729 93.8588 40.0928C93.2426 39.5126 92.7525 38.8119 92.4187 38.0342C91.7129 36.3198 91.7129 34.396 92.4187 32.6816C92.7525 31.9039 93.2426 31.2032 93.8588 30.6231C94.4749 30.0429 95.2038 29.5957 96.0001 29.3093C96.8435 28.9962 97.7365 28.8383 98.6361 28.8431C99.4558 28.8475 100.268 29.001 101.032 29.2962C101.838 29.6014 102.56 30.0934 103.139 30.7319L100.989 32.8799Z"
        fill="#202054" />
    <path
        d="M112.204 39.8597H112.128C111.722 40.5286 111.128 41.0634 110.42 41.3977C109.706 41.722 108.93 41.8856 108.146 41.877C107.582 41.8773 107.021 41.7989 106.479 41.6439C105.958 41.4998 105.468 41.2629 105.031 40.9446C104.609 40.6367 104.261 40.2394 104.011 39.7813C103.743 39.2815 103.61 38.7208 103.623 38.154C103.606 37.5605 103.73 36.9713 103.985 36.4351C104.217 35.9725 104.548 35.5665 104.954 35.2457C105.379 34.9161 105.856 34.6585 106.364 34.4832C106.905 34.289 107.463 34.1432 108.03 34.0475C108.607 33.9535 109.189 33.8931 109.773 33.8667C110.354 33.8405 110.905 33.8275 111.427 33.8275H112.202V33.492C112.202 32.7164 111.935 32.1355 111.401 31.7492C110.8 31.3414 110.085 31.1374 109.359 31.1675C108.73 31.1631 108.107 31.2815 107.523 31.5161C106.977 31.7354 106.477 32.0562 106.05 32.4616L104.427 30.8386C105.098 30.1433 105.927 29.6201 106.843 29.3136C107.763 29.0037 108.728 28.8463 109.699 28.8474C110.452 28.8299 111.202 28.9306 111.923 29.1459C112.463 29.3115 112.97 29.5694 113.422 29.9083C113.8 30.1966 114.113 30.562 114.339 30.9802C114.548 31.3675 114.705 31.7806 114.806 32.2088C114.897 32.6039 114.953 33.0064 114.973 33.4114C114.989 33.7991 114.999 34.139 114.999 34.4309V41.5655H112.204V39.8597ZM112.024 36.0081H111.37C110.934 36.0081 110.457 36.0256 109.924 36.0604C109.413 36.0907 108.906 36.1732 108.412 36.3066C107.978 36.4157 107.569 36.6088 107.209 36.8752C107.049 36.9966 106.92 37.1553 106.835 37.3375C106.749 37.5196 106.71 37.7199 106.719 37.9209C106.709 38.1801 106.777 38.4364 106.913 38.6572C107.044 38.8582 107.216 39.0302 107.416 39.1626C107.629 39.3019 107.865 39.4022 108.113 39.4589C108.367 39.5192 108.628 39.5499 108.889 39.5504C109.959 39.5504 110.748 39.2962 111.255 38.7879C111.761 38.2796 112.016 37.5854 112.017 36.7053L112.024 36.0081Z"
        fill="#202054" />
    <defs>
        <linearGradient id="paint0_linear_878_737" x1="4.38935" y1="10.5877" x2="35.1148" y2="40.4352" gradientUnits="userSpaceOnUse">
            <stop offset="0.216302" stop-color="#202054" />
            <stop offset="0.593861" stop-color="#AB2638" />
            <stop offset="1" stop-color="#F0B73F" />
        </linearGradient>
    </defs>
</svg>